<?xml version="1.0" encoding="iso-8859-1"?>
<!-- Uploaded to: SVG Repo, www.svgrepo.com, Generator: SVG Repo Mixer Tools -->
<!DOCTYPE svg PUBLIC "-//W3C//DTD SVG 1.1//EN" "http://www.w3.org/Graphics/SVG/1.1/DTD/svg11.dtd">
<svg fill="#000000" height="800px" width="800px" version="1.1" id="Capa_1" xmlns="http://www.w3.org/2000/svg" xmlns:xlink="http://www.w3.org/1999/xlink" 
	 viewBox="0 0 305.41 305.41" xml:space="preserve">
<g>
	<g>
		<path d="M251.083,41.029H9.327C4.185,41.029,0,45.215,0,50.359V161.7c0,5.144,4.185,9.329,9.327,9.329h241.756
			c5.143,0,9.327-4.185,9.327-9.329V50.359C260.41,45.215,256.226,41.029,251.083,41.029z M73.072,145.478
			c-6.016,0-11.621-1.486-16.435-4.202c-1.22,2.488-3.778,4.202-6.737,4.202c-4.143,0-7.5-3.358-7.5-7.5V123.02
			c-0.008-0.198-0.008-0.396,0-0.592v-20.784c-0.008-0.197-0.008-0.395,0-0.592V63.52c0-4.142,3.357-7.5,7.5-7.5s7.5,3.358,7.5,7.5
			v18.862c4.639-2.452,9.973-3.787,15.672-3.787c18.637,0,32.69,14.397,32.69,33.488C105.763,131.121,91.709,145.478,73.072,145.478
			z M163.445,137.072c0,4.142-3.357,7.5-7.5,7.5c-3.255,0-6.025-2.074-7.063-4.972c-3.626,1.843-7.866,2.86-12.647,2.964
			c-0.055,0.001-0.109,0.002-0.164,0.002c-16.047,0-27.252-10.675-27.252-25.961V85.192c0-4.142,3.357-7.5,7.5-7.5
			s7.5,3.358,7.5,7.5v31.413c0,9.826,8.452,10.946,12.177,10.961c4.103-0.091,12.45-0.394,12.45-16.987V85.192
			c0-4.142,3.357-7.5,7.5-7.5c4.143,0,7.5,3.358,7.5,7.5V137.072z M223.956,88.03l-20.971,51.299
			c-0.085,0.243-0.183,0.482-0.292,0.716l-3.021,7.391c-4.393,10.566-11.852,16.603-20.482,16.603c-4.143,0-7.5-3.358-7.5-7.5
			s3.357-7.5,7.5-7.5c2.236,0,4.709-2.736,6.613-7.319l1.989-4.864l-20.157-48.8c-1.582-3.828,0.24-8.214,4.068-9.795
			c3.829-1.582,8.214,0.24,9.795,4.068l14.366,34.779l14.207-34.754c1.566-3.834,5.948-5.672,9.78-4.104
			C223.686,79.817,225.523,84.196,223.956,88.03z"/>
		<path d="M73.072,93.595c-7.025,0-12.789,3.461-15.672,9.329v18.225c2.881,5.868,8.645,9.328,15.672,9.328
			c10.416,0,17.69-7.564,17.69-18.395C90.763,101.197,83.488,93.595,73.072,93.595z"/>
	</g>
	<g>
		<path d="M302.482,247.31l-20.257-20.257c3.717-0.384,7.066-2.833,8.402-6.588c1.851-5.204-0.867-10.922-6.07-12.773
			l-35.795-12.732c-3.636-1.293-7.692-0.378-10.424,2.352c-2.729,2.729-3.643,6.785-2.35,10.422l12.24,34.407
			c1.457,4.096,5.311,6.651,9.422,6.651c1.112,0,2.244-0.188,3.352-0.582c3.488-1.241,5.85-4.222,6.476-7.618l20.859,20.86
			c1.954,1.953,4.513,2.929,7.072,2.929c2.56,0,5.118-0.976,7.071-2.929C306.387,257.547,306.387,251.215,302.482,247.31z"/>
	</g>
</g>
</svg>